# xmcd CD database file
#
# Track frame offsets:
#	150
#	22875
#	47525
#	70497
#	92450
#	113635
#	140992
#	169817
#	189467
#	213320
#
# Disc length: 3134 seconds
#
# Revision: 0
# Processed by: cddbd v1.5PL3 Copyright (c) Steve Scherf et al.
# Submitted via: CDex 1.51
#
DISCID=870c3c0a
DTITLE=辺見えみり - デビュタント
DYEAR=1994
DGENRE=Pop
TTITLE0=TEARS FOR TOMORROW
TTITLE1=12時の魔法
TTITLE2=ブルー・マーメイド
TTITLE3=きれいになろうよ
TTITLE4=幸福(しあわせ)
TTITLE5=太陽の国 夏のメロディー
TTITLE6=あなたが好きだから
TTITLE7=MAMA
TTITLE8=半袖の君
TTITLE9=笑顔を見せて
EXTD=YEAR: 1994
EXTT0=
EXTT1=
EXTT2=
EXTT3=
EXTT4=
EXTT5=
EXTT6=
EXTT7=
EXTT8=
EXTT9=
PLAYORDER=
